<svg width="24" height="24" viewBox="0 0 24 24" fill="none" xmlns="http://www.w3.org/2000/svg">
<path d="M7 5.61688V16.3369C6.54537 16.1209 6.0368 16 5.5 16C3.567 16 2 17.567 2 19.5C2 21.433 3.567 23 5.5 23C7.433 23 9 21.433 9 19.5L9 8.57148L19 6.42862V14.3369C18.5454 14.1209 18.0368 14 17.5 14C15.567 14 14 15.567 14 17.5C14 17.6209 14.0061 17.7402 14.0181 17.8579C14.1973 19.6228 15.6878 21 17.5 21C19.433 21 21 19.433 21 17.5V3.47403C21 2.20074 19.826 1.25163 18.5809 1.51843L8.58094 3.66128C7.6588 3.85888 7 4.67381 7 5.61688Z" fill="black"/>
</svg>
